# xmcd
#
# Track frame offsets:
#	150
#	20598
#	43371
#	77169
#	99717
#	128340
#	149838
#	172086
#	192534
#	222807
#	234030
#
# Disc length: 3395 seconds
#
# Revision: 0
# Processed by: cddbd v1.5.2PL0 Copyright (c) Steve Scherf et al.
# Submitted via: EZCDAudioConverter 3.1.0.1
#
DISCID=9e0d410b
DTITLE=Craig Erickson - Sky Train Galaxy
DYEAR=2015
DGENRE=Blues Rock
TTITLE0=The Comeback
TTITLE1=Blinded By Love
TTITLE2=Gettin' Tighter/Ode To T
TTITLE3=Time (Never Enough)
TTITLE4=Illusions Of The World
TTITLE5=Mojo In Memphis
TTITLE6=Mercy
TTITLE7=Boogie For Love
TTITLE8=Sky Train
TTITLE9=Morning Glory
TTITLE10=Mojo In Memphis (Reprise Acoustic Version) 
EXTD=
EXTT0=
EXTT1=
EXTT2=
EXTT3=
EXTT4=
EXTT5=
EXTT6=
EXTT7=
EXTT8=
EXTT9=
EXTT10=
PLAYORDER=
